# xmcd CD database file
#
# Track frame offsets:
#	182
#	23352
#	56960
#	98307
#	131577
#	161060
#	210192
#	243505
#	273892
#
# Disc length: 4194 seconds
#
# Revision: 0
# Processed by: cddbd v1.5PL3 Copyright (c) Steve Scherf et al.
# Submitted via: CDex 1.51
#
DISCID=6a106009
DTITLE=John Abercrombie - Where We Were
DYEAR=1996
DGENRE=Jazz
TTITLE0=End Of A Love Affair
TTITLE1=Soulstice
TTITLE2=Where We Were
TTITLE3=Dream Team
TTITLE4=Dream Gypsy
TTITLE5=Turn Out The Stars
TTITLE6=Quality Of Your Silence
TTITLE7=John's Waltz
TTITLE8=Softly As in A Morning Sunrise
EXTD=YEAR: 1996
EXTT0=
EXTT1=
EXTT2=
EXTT3=
EXTT4=
EXTT5=
EXTT6=
EXTT7=
EXTT8=
PLAYORDER=
